<svg viewBox="-43 0 512 512" xmlns="http://www.w3.org/2000/svg"><path d="m338.691406 372.902344 58.800782-18.621094c11.25-3.5625 18.625-14.3125 17.945312-26.09375-.640625-11.082031-2.039062-30.085938-5.019531-53.140625h-395.355469c-2.980469 23.054687-4.378906 42.058594-5.019531 53.140625-.679688 11.78125 6.695312 22.53125 17.949219 26.09375l58.796874 18.621094" fill="#70dbe0"/><path d="m160.746094 32.023438c-34.761719 6.542968-79.914063 31.414062-112.488282 108.816406-20.011718 47.554687-33.636718 137.621094-33.195312 134.203125 3.144531 4.253906 7.601562 7.550781 12.929688 9.238281l184.75 58.507812 184.75-58.507812c5.324218-1.6875 9.78125-4.984375 12.925781-9.234375 2.1875 16.925781-6.855469-71.621094-33.195313-134.207031-32.671875-77.640625-78.003906-102.425782-112.808594-108.875" fill="#fff"/><path d="m153.742188 128.332031s-17.121094 50.746094-54.140626 50.761719c-.277343 3.230469-.417968 6.5-.417968 9.800781 0 62.71875 50.839844 113.558594 113.558594 113.558594 58.492187 0 106.652343-44.222656 112.875-101.058594-74.722657-.183593-171.875-73.0625-171.875-73.0625zm0 0" fill="#ffd4b8"/><path d="m191.519531 302.472656v34.339844h-53.183593c-30.285157 0-54.832032 24.550781-54.832032 54.835938v110.351562h258.476563v-110.351562c0-30.285157-24.550781-54.835938-54.835938-54.835938h-53.183593v-34.339844" fill="#ffd4b8"/><path d="m259.921875 399.855469c-26.058594 0-47.179687 11.121093-47.179687 37.179687 0-26.058594-21.125-37.179687-47.183594-37.179687-26.054688 0-47.179688 21.121093-47.179688 47.179687v54.964844h188.722656v-54.964844c0-26.058594-21.125-47.179687-47.179687-47.179687zm0 0" fill="#fff"/><path d="m273.558594 481c-.648438 0-1.308594-.070312-1.949219-.199219-.640625-.121093-1.269531-.320312-1.867187-.570312-.613282-.25-1.191407-.558594-1.730469-.921875-.550781-.359375-1.0625-.777344-1.519531-1.238282-.460938-.460937-.882813-.96875-1.242188-1.519531-.359375-.539062-.667969-1.121093-.917969-1.730469-.25-.601562-.453125-1.230468-.570312-1.871093-.132813-.640625-.203125-1.300781-.203125-1.949219s.070312-1.308594.203125-1.949219c.117187-.640625.320312-1.269531.570312-1.878906.25-.601563.558594-1.183594.917969-1.722656.359375-.550781.78125-1.058594 1.242188-1.519531.457031-.460938.96875-.878907 1.519531-1.238282.539062-.363281 1.117187-.671875 1.730469-.921875.597656-.25 1.226562-.449219 1.867187-.570312 1.292969-.257813 2.609375-.257813 3.898437 0 .644532.121093 1.273438.320312 1.882813.570312.601563.25 1.179687.558594 1.71875.921875.550781.359375 1.0625.777344 1.519531 1.238282.460938.460937.882813.96875 1.242188 1.519531.359375.539062.667968 1.121093.917968 1.722656.25.609375.453126 1.238281.570313 1.878906.132813.640625.199219 1.300781.199219 1.949219s-.066406 1.308594-.199219 1.949219c-.117187.640625-.320313 1.269531-.570313 1.871093-.25.609376-.558593 1.191407-.917968 1.730469-.359375.550781-.78125 1.058594-1.242188 1.519531-.457031.460938-.96875.878907-1.519531 1.238282-.539063.363281-1.117187.671875-1.71875.921875-.609375.25-1.238281.449219-1.882813.570312-.636718.128907-1.296874.199219-1.949218.199219zm0 0"/><path d="m276.867188 72.015625c-.058594-35.367187-28.746094-62.015625-64.125-62.015625-35.417969 0-64.128907 26.710938-64.128907 62.128906v2.25" fill="#b06d5d"/><path d="m99.582031 179.09375c37.03125 0 54.160157-50.757812 54.160157-50.757812s97.394531 73.058593 172.15625 73.058593v-45.96875c0-62.628906-50.878907-95.796875-113.558594-95.578125-62.539063.214844-112.753906 34.265625-112.753906 96.804688v22.441406zm0 0" fill="#b06d5d"/><path d="m425.421875 327.609375c-.667969-11.519531-5.875-60.648437-6.570313-65.285156-1.140624-7.566407-3.097656-19.59375-5.96875-33.921875-4.996093-24.917969-13.636718-61.015625-26.441406-91.441406-34.765625-82.605469-84.207031-108.015626-119.738281-114.742188-13.425781-13.757812-32.496094-22.21875-53.960937-22.21875-21.484376 0-40.558594 8.460938-53.980469 22.222656-35.441407 6.710938-84.933594 32.074219-119.722657 114.738282-16.835937 40.011718-29.121093 107.867187-33.621093 135.183593-.054688.335938-4.667969 43.492188-5.3593752 55.464844-.9453128 16.371094 9.3007812 31.257813 24.9140622 36.203125l49.664063 15.730469c-.746094 3.921875-1.136719 7.96875-1.136719 12.105469v110.351562c0 5.523438 4.476562 10 10 10h258.476562c5.523438 0 10-4.476562 10-10v-110.351562c0-4.136719-.386718-8.183594-1.132812-12.105469l49.667969-15.730469c15.609375-4.941406 25.851562-19.832031 24.910156-36.203125zm-57.417969-182.890625c18.941406 45.011719 29.253906 106.46875 32.023438 126.925781-1.609375 1.394531-3.492188 2.449219-5.574219 3.109375l-150.492187 47.953125v-14.21875c47.847656-12.40625 84.75-52.726562 91.308593-103.605469.40625-1.085937.628907-2.261718.628907-3.488281v-45.96875c0-28.304687-9.75-52.976562-28.191407-71.359375-6.144531-6.121094-13.171875-11.480468-20.949219-16.027344-.394531-7.167968-1.816406-14.023437-4.132812-20.441406 35.113281 14.03125 64.363281 47.175782 85.378906 97.121094zm-258.820312 44.179688c0-.242188 0-.484376.003906-.726563 25.660156-5.015625 41.398438-29.371094 48.855469-44.488281 25.824219 17.8125 95.027343 61.796875 155.929687 67.167968-10.117187 47.199219-51.90625 81.601563-101.230468 81.601563-57.101563 0-103.558594-46.453125-103.558594-103.554687zm103.191406-119.054688h.582031c33.628907 0 62.25 10.070312 80.628907 28.390625 14.804687 14.753906 22.3125 33.996094 22.3125 57.191406v35.523438c-69.136719-5.957031-155.253907-69.9375-156.15625-70.613281-1.75-1.316407-3.859376-1.996094-5.992188-1.996094-.992188 0-1.992188.148437-2.960938.445312-3.058593.945313-5.484374 3.304688-6.519531 6.335938-.132812.386718-11.898437 34.09375-34.6875 42.226562v-10.695312c0-63.808594 55.375-86.644532 102.792969-86.808594zm.367188-49.84375c25.261718 0 45.992187 15.890625 52.214843 38.082031-15.632812-5.410156-33.195312-8.238281-52.003906-8.238281-.214844 0-.433594 0-.648437 0-19.046876.066406-36.472657 3.007812-51.835938 8.433594 6.152344-22.300782 26.917969-38.277344 52.273438-38.277344zm-155.265626 124.71875c21.015626-49.9375 50.265626-83.085938 85.375-97.117188-2.355468 6.53125-3.785156 13.519532-4.148437 20.832032-30.851563 18.433594-49.121094 49.492187-49.121094 88.21875v22.25c-.265625 3.308594-.398437 6.667968-.398437 9.992187 0 57.351563 39.273437 105.699219 92.335937 119.5625v14.25l-150.507812-47.960937c-1.953125-.617188-3.730469-1.585938-5.273438-2.863282 4.101563-24.316406 16.105469-90.023437 31.738281-127.164062zm-26.46875 200.027344c-6.882812-2.179688-11.398437-8.753906-10.980468-15.984375.496094-8.570313 1.386718-20.875 2.96875-35.636719.640625.246094 1.296875.472656 1.957031.683594l105.199219 33.519531c-21.066406 2.664063-39.015625 15.480469-48.777344 33.371094zm97.371094 147.253906v-11h108.179688c5.523437 0 10-4.476562 10-10s-4.476563-10-10-10h-108.179688v-13.964844c0-20.5 16.679688-37.179687 37.179688-37.179687 13.886718 0 37.179687 3.53125 37.179687 27.179687 0 5.523438 4.476563 10 10 10 5.523438 0 10-4.476562 10-10 0-23.648437 23.296875-27.179687 37.183594-27.179687 20.5 0 37.179687 16.679687 37.179687 37.179687v44.964844zm203.597656 0h-14.875v-44.964844c0-31.527344-25.652343-57.179687-57.179687-57.179687h-.003906c-21.136719 0-37.476563 6.496093-47.179688 17.964843-9.699219-11.472656-26.039062-17.964843-47.179687-17.964843-31.527344 0-57.179688 25.652343-57.179688 57.179687v44.964844h-14.878906v-100.351562c0-24.722657 20.113281-44.835938 44.835938-44.835938h53.183593c5.523438 0 10-4.476562 10-10v-24.863281c3.695313.332031 7.4375.503906 11.21875.503906s7.523438-.171875 11.21875-.503906v24.863281c0 5.523438 4.480469 10 10 10h53.1875c24.722657 0 44.832031 20.113281 44.832031 44.832031zm62.492188-147.253906-50.367188 15.953125c-9.761718-17.894531-27.707031-30.707031-48.773437-33.371094l105.179687-33.515625c.667969-.210938 1.328126-.441406 1.976563-.6875 1.582031 14.753906 2.472656 27.0625 2.96875 35.636719.417969 7.230469-4.097656 13.804687-10.984375 15.984375zm0 0"/></svg>