<svg height="496pt" viewBox="0 0 496 496" width="496pt" xmlns="http://www.w3.org/2000/svg"><path d="m256 72c0 92.785156 78.800781 168 176 168v-168zm0 0" fill="#f58dd1"/><path d="m280 72h152v166.40625c-85.839844-11.183594-152-81.398438-152-166.40625zm0 0" fill="#f7aadc"/><path d="m281.816406 72h150.183594v142.40625c-77.609375-10.109375-139.097656-68.476562-150.183594-142.40625zm0 0" fill="#f8a5c9"/><path d="m305.816406 72h126.183594v137.503906c-66.007812-17.839844-116.273438-71.390625-126.183594-137.503906zm0 0" fill="#fbd2e4"/><path d="m240 72c0 92.785156-78.800781 168-176 168v-168zm0 0" fill="#f58dd1"/><path d="m216 72h-152v166.40625c85.839844-11.183594 152-81.398438 152-166.40625zm0 0" fill="#f7aadc"/><path d="m214.183594 72h-150.183594v142.40625c77.609375-10.109375 139.097656-68.476562 150.183594-142.40625zm0 0" fill="#f8a5c9"/><path d="m190.183594 72h-126.183594v137.503906c66.007812-17.839844 116.273438-71.390625 126.183594-137.503906zm0 0" fill="#fbd2e4"/><path d="m408 240v248h-88v-136c0-53.617188 37.679688-98.433594 88-109.425781zm0 0" fill="#f58dd1"/><path d="m408 250.871094v237.128906h-64v-136c0-44.664062 26.183594-83.144531 64-101.128906zm0 0" fill="#f7aadc"/><path d="m88 240v248h88v-136c0-53.617188-37.679688-98.433594-88-109.425781zm0 0" fill="#f58dd1"/><path d="m88 250.871094v237.128906h64v-136c0-44.664062-26.183594-83.144531-64-101.128906zm0 0" fill="#f7aadc"/><path d="m24 424h80v32h-80zm0 0" fill="#666"/><path d="m24 424h56v32h-56zm0 0" fill="#999"/><path d="m392 424h80v32h-80zm0 0" fill="#666"/><path d="m392 424h56v32h-56zm0 0" fill="#999"/><path d="m376 456h112v32h-112zm0 0" fill="#808080"/><path d="m376 456h88v32h-88zm0 0" fill="#999"/><path d="m8 456h112v32h-112zm0 0" fill="#808080"/><path d="m8 456h88v32h-88zm0 0" fill="#999"/><path d="m408 72h48v352h-48zm0 0" fill="#b3b3b3"/><path d="m408 72h24v352h-24zm0 0" fill="#ccc"/><path d="m40 72h48v352h-48zm0 0" fill="#b3b3b3"/><path d="m40 72h24v352h-24zm0 0" fill="#ccc"/><path d="m160 72h-152v-48h480v48zm0 0" fill="#ccc"/><path d="m320 24h-312v48h448v-48zm0 0" fill="#e6e6e6"/><path d="m192 127.273438 56 40.726562 61.640625-44.832031c16.558594-12.039063 26.359375-31.28125 26.359375-51.761719v-4.894531c0-16.976563-6.742188-33.253907-18.742188-45.253907l-1.539062-1.539062c-7.503906-7.503906-17.679688-11.71875-28.285156-11.71875h-2.175782c-8.488281 0-16.625 3.367188-22.625 9.375l-14.632812 14.625-14.625-14.625c-6.007812-6.007812-14.144531-9.375-22.632812-9.375h-2.175782c-10.605468 0-20.78125 4.214844-28.285156 11.710938l-1.539062 1.535156c-12 12.011718-18.742188 28.289062-18.742188 45.265625v4.894531c0 20.472656 9.800781 39.714844 26.359375 51.761719z" fill="#b2151b"/><path d="m287.433594 32h-2.175782c-8.488281 0-16.625 3.367188-22.625 9.375l-14.632812 14.625-14.625-14.625c-6.007812-6.007812-14.144531-9.375-22.632812-9.375h-2.175782c-10.605468 0-20.78125 4.214844-28.285156 11.710938l-1.539062 1.535156c-9.71875 9.722656-15.910157 22.257812-17.941407 35.683594 2.535157 16.796874 11.597657 32.085937 25.558594 42.230468l5.640625 4.113282 56 40.726562 61.640625-44.832031c13.953125-10.152344 23.023437-25.433594 25.558594-42.230469-2.03125-13.425781-8.230469-25.960938-17.941407-35.679688l-1.539062-1.539062c-7.503906-7.503906-17.679688-11.71875-28.285156-11.71875zm0 0" fill="#ed1c24"/><path d="m120 496h-112c-4.425781 0-8-3.585938-8-8v-32c0-4.414062 3.574219-8 8-8h112c4.425781 0 8 3.585938 8 8v32c0 4.414062-3.574219 8-8 8zm-104-16h96v-16h-96zm0 0"/><path d="m104 464h-80c-4.425781 0-8-3.585938-8-8v-32c0-4.414062 3.574219-8 8-8h80c4.425781 0 8 3.585938 8 8v32c0 4.414062-3.574219 8-8 8zm-72-16h64v-16h-64zm0 0"/><path d="m472 464h-80c-4.425781 0-8-3.585938-8-8v-32c0-4.414062 3.574219-8 8-8h80c4.425781 0 8 3.585938 8 8v32c0 4.414062-3.574219 8-8 8zm-72-16h64v-16h-64zm0 0"/><path d="m488 496h-112c-4.425781 0-8-3.585938-8-8v-32c0-4.414062 3.574219-8 8-8h112c4.425781 0 8 3.585938 8 8v32c0 4.414062-3.574219 8-8 8zm-104-16h96v-16h-96zm0 0"/><path d="m88 432h-48c-4.425781 0-8-3.585938-8-8v-352c0-4.414062 3.574219-8 8-8h48c4.425781 0 8 3.585938 8 8v352c0 4.414062-3.574219 8-8 8zm-40-16h32v-336h-32zm0 0"/><path d="m456 432h-48c-4.425781 0-8-3.585938-8-8v-352c0-4.414062 3.574219-8 8-8h48c4.425781 0 8 3.585938 8 8v352c0 4.414062-3.574219 8-8 8zm-40-16h32v-336h-32zm0 0"/><path d="m89.078125 246.304688-2.15625-15.847657c54.324219-7.410156 101.71875-41.089843 126.765625-90.097656l14.25 7.28125c-27.441406 53.664063-79.34375 90.542969-138.859375 98.664063zm0 0"/><path d="m406.921875 246.304688c-59.515625-8.121094-111.425781-45-138.859375-98.664063l14.25-7.28125c25.046875 49 72.441406 82.679687 126.765625 90.097656zm0 0"/><path d="m89.320312 213.894531-2.640624-15.78125c42.746093-7.167969 79.824218-34.714843 99.183593-73.671875l14.328125 7.117188c-21.640625 43.546875-63.078125 74.320312-110.871094 82.335937zm0 0"/><path d="m406.679688 213.894531c-47.792969-8.015625-89.230469-38.796875-110.871094-82.335937l14.328125-7.117188c19.367187 38.964844 56.449219 66.503906 99.183593 73.671875zm0 0"/><path d="m488 80h-152v-16h144v-32h-160v-16h168c4.425781 0 8 3.585938 8 8v48c0 4.414062-3.574219 8-8 8zm0 0"/><path d="m160 80h-152c-4.425781 0-8-3.585938-8-8v-48c0-4.414062 3.574219-8 8-8h168v16h-160v32h144zm0 0"/><path d="m176 496h-88v-16h80v-128c0-48.535156-34.359375-91.273438-81.703125-101.609375l3.40625-15.628906c54.640625 11.925781 94.296875 61.238281 94.296875 117.238281v136c0 4.414062-3.574219 8-8 8zm0 0"/><path d="m408 496h-88c-4.425781 0-8-3.585938-8-8v-136c0-56 39.65625-105.3125 94.296875-117.238281l3.40625 15.628906c-47.34375 10.335937-81.703125 53.074219-81.703125 101.609375v128h80zm0 0"/><path d="m248 176c-1.648438 0-3.304688-.511719-4.703125-1.527344l-56-40.730468s0 0-.007813 0l-5.640624-4.101563c-18.558594-13.503906-29.648438-35.273437-29.648438-58.234375v-4.902344c0-19.230468 7.488281-37.3125 21.089844-50.910156l1.535156-1.539062c9.078125-9.0625 21.136719-14.054688 33.941406-14.054688h2.167969c10.691406 0 20.738281 4.160156 28.289063 11.710938l8.976562 8.96875 8.96875-8.96875c7.550781-7.550782 17.597656-11.710938 28.289062-11.710938h2.167969c12.8125 0 24.863281 4.992188 33.941407 14.054688l1.535156 1.546874c13.609375 13.597657 21.097656 31.679688 21.097656 50.902344v4.902344c0 22.960938-11.089844 44.730469-29.65625 58.226562l-61.640625 44.832032c-1.398437 1.023437-3.054687 1.535156-4.703125 1.535156zm-51.289062-55.191406 51.289062 37.304687 56.9375-41.410156c14.4375-10.511719 23.0625-27.4375 23.0625-45.296875v-4.902344c0-14.960937-5.832031-29.015625-16.398438-39.601562l-1.539062-1.535156c-6.046875-6.039063-14.085938-9.367188-22.628906-9.367188h-2.167969c-6.417969 0-12.449219 2.496094-16.976563 7.023438l-14.625 14.632812c-3 3-8.3125 3-11.3125 0l-14.625-14.632812c-4.542968-4.527344-10.566406-7.023438-16.984374-7.023438h-2.167969c-8.542969 0-16.582031 3.328125-22.628907 9.375l-1.546874 1.535156c-10.566407 10.578125-16.398438 24.640625-16.398438 39.59375v4.902344c0 17.859375 8.625 34.785156 23.0625 45.289062zm0 0"/></svg>