<?xml version="1.0" encoding="iso-8859-1"?>
<!-- Generator: Adobe Illustrator 19.0.0, SVG Export Plug-In . SVG Version: 6.00 Build 0)  -->
<svg version="1.1" id="Layer_1" xmlns="http://www.w3.org/2000/svg" xmlns:xlink="http://www.w3.org/1999/xlink" x="0px" y="0px"
	 viewBox="0 0 512.001 512.001" style="enable-background:new 0 0 512.001 512.001;" xml:space="preserve">
<path style="fill:#FC3842;" d="M264.685,319.192l-124.15-124.149L7.984,475.076c-0.12,0.263-7.089,17.442,2.428,26.958
	c9.55,9.55,26.83,2.487,26.964,2.426l280.028-132.547l-34.206-34.208"/>
<path style="fill:#FC5162;" d="M213.226,267.733c-39.901,49.739-60.93,113.198-56.373,180.176l160.551-75.994
	C275.78,330.286,289.681,344.188,213.226,267.733z"/>
<path style="fill:#EF2235;" d="M28.977,506.652c1.737-11.296,101.822-216.951,134.785-288.382l-23.227-23.228L7.984,475.076
	c-0.906,1.981-6.935,19.11,3.394,27.844C18.221,508.742,27.975,506.652,28.977,506.652z"/>
<circle style="fill:#FFCA54;" cx="198.387" cy="97.678" r="15.134"/>
<circle style="fill:#00CDB3;" cx="423.016" cy="157.423" r="15.134"/>
<path style="fill:#FFCA54;" d="M317.405,371.913l32.73-15.217c-1.004-1.004-192.771-192.771-194.35-194.35l-15.249,32.697"/>
<path style="fill:#FCD27C;" d="M213.226,267.733l104.179,104.181l32.73-15.217c-3.162-3.162-112.042-112.041-114.006-114.005
	C227.962,250.525,220.314,258.894,213.226,267.733z"/>
<path style="fill:#FFCA54;" d="M120.036,238.347L80.895,321.04c16.722,7.229,36.871,4.023,50.536-9.641
	C153.29,289.539,147.64,252.578,120.036,238.347z"/>
<path style="fill:#F9B24B;" d="M120.036,238.347c-19.441,41.075-37.933,80.14-39.142,82.693c10.711,4.63,22.822,4.956,33.743,1.018
	l27.588-58.284C138.332,252.74,130.326,243.651,120.036,238.347z"/>
<path style="fill:#FFCA54;" d="M192.125,397.033l-0.036-0.02c-14.368-15.944-32.008-14.947-32.008-14.947l0.004,0.018
	c-42.47-1.706-64.374,50.947-32.52,79.686l76.388-36.157C203.443,414.894,199.198,404.808,192.125,397.033z"/>
<path style="fill:#F9B24B;" d="M55.398,374.908l-17.941,37.9c8.841,10.121,24.146,10.375,33.387,1.133
	C85.02,399.766,75.321,375.544,55.398,374.908z"/>
<circle style="fill:#FFCA54;" cx="193.049" cy="319.402" r="19.56"/>
<path style="fill:#F9B24B;" d="M163.762,218.271l15.01-32.184c-0.177-0.406-0.336-0.817-0.481-1.233
	c-6.749-6.747-2.191-2.191-22.508-22.509l-0.17,0.366l0,0l-15.079,32.332L163.762,218.271z"/>
<path style="fill:#57BAE5;" d="M368.514,329.327c-17.785-17.785-167.318-167.311-185.393-185.393c-6.621-6.62-17.354-6.62-23.974,0
	c-6.621,6.621-6.621,17.354,0,23.974l185.394,185.393c6.621,6.62,17.353,6.62,23.974,0
	C375.134,346.682,375.134,335.948,368.514,329.327z"/>
<path style="fill:#70D1F2;" d="M344.54,353.3c6.621,6.62,17.353,6.62,23.974,0c6.62-6.619,6.62-17.353,0-23.974l-107.611-107.61
	c-9.111,6.786-17.752,14.164-25.887,22.061L344.54,353.3z"/>
<path style="fill:#34A9D1;" d="M155.614,162.711L155.614,162.711c1.676,3.834,1.651,3.315,22.699,24.363l0.46-0.987
	c-5.371-12.284,4.952-25.625,18.202-23.513l-0.009-0.017c0,0,5.32,0.549,1.566-3.208l-15.41-15.416
	c-7.004-7.003-18.602-6.582-25.026,1.165C154.045,149.949,153.04,156.839,155.614,162.711z"/>
<g>
	<path style="fill:#231F20;" d="M244.956,197.921c-3.152-3.153-8.264-3.153-11.416,0c-3.153,3.152-3.153,8.263,0,11.415
		c134.924,134.927,127.773,126.265,127.773,131.302c0,7.546-9.181,11.382-14.539,6.023L165.34,165.228
		c-3.321-3.321-3.321-8.724-0.001-12.045c3.321-3.321,8.726-3.32,12.045-0.001l37.648,37.661c3.152,3.154,8.263,3.154,11.416,0.002
		s3.153-8.263,0.002-11.416l-37.65-37.663c-17.34-17.339-46.77-1.289-41.49,22.76c-20.954,44.929,7.249-14.865-144.024,304.726
		c-0.099,0.216-9.52,21.936,4.004,35.459c5.638,5.637,12.69,7.291,19.027,7.291c18.657,0,10.303-2.726,321.223-147.295
		c24.189,5.241,39.912-24.286,22.694-41.506L244.956,197.921z M93.26,316.901l30.328-64.072
		C151.86,276.964,130.105,323.5,93.26,316.901z M56.303,411.278c-2.446,0-4.799-0.61-6.883-1.756l12.235-25.847
		C76.211,389.496,71.917,411.278,56.303,411.278z M208.63,412.337c-2.19-7.959-6.224-15.362-11.828-21.524
		c-2.999-3.299-8.105-3.539-11.403-0.54c-3.299,2.999-3.542,8.105-0.542,11.402c4.533,4.987,7.59,11.142,8.86,17.72l-64.291,30.431
		c-22.12-26.564,1.692-66.314,35.57-59.46c4.368,0.883,8.629-1.94,9.514-6.309c0.885-4.369-1.939-8.63-6.309-9.515
		c-46.814-9.49-81.261,43.408-53.682,82.341l-78.357,37.089c-3.294,1.282-13.04,3.739-17.456-0.678
		c-4.43-4.43-1.969-14.157-0.689-17.43l24.489-51.737c11.25,5.727,25.625,4.088,35.341-5.629c15.139-15.14,10.288-40.856-9.28-49.43
		l17.616-37.216c56.979,15.139,91.387-60.141,44.48-93.971l12.071-25.502l113.396,113.395c3.153,3.152,8.264,3.15,11.416,0
		c3.153-3.153,3.153-8.264,0-11.417l-117.503-117.5l7.662-16.428l173.885,173.886l-16.443,7.645l-29.484-29.484
		c-3.153-3.151-8.264-3.152-11.416-0.001c-3.153,3.153-3.153,8.263,0,11.416l25.374,25.376L208.63,412.337z"/>
	<path style="fill:#231F20;" d="M172.484,301.03c-10.61,10.611-10.61,27.877,0.001,38.487c10.633,10.633,27.85,10.637,38.487,0
		c10.61-10.611,10.61-27.878-0.001-38.488C200.337,290.393,183.122,290.391,172.484,301.03z M191.729,331.341
		c-2.958,0-5.737-1.15-7.828-3.243c-6.951-6.95-2.002-18.895,7.828-18.895c2.957,0,5.737,1.151,7.827,3.242
		C206.505,319.395,201.56,331.341,191.729,331.341z"/>
	<path style="fill:#231F20;" d="M505.331,188.794c-40.159-7.089-52.868,19.263-62.152,38.507
		c-9.236,19.142-14.317,29.691-38.02,19.676c-21.988-9.292-40.331-10.421-54.525-3.356c-11.318,5.634-15.474,14.486-15.91,15.476
		c-2.356,5.345,1.581,11.329,7.384,11.329c3.102,0,6.059-1.798,7.391-4.819c0.092-0.209,9.601-20.565,49.376-3.759
		c16.676,7.047,29.811,6.844,40.154-0.626c24.786-17.895,18.489-64.479,63.493-56.529c4.388,0.778,8.578-2.153,9.354-6.545
		C512.651,193.758,509.721,189.571,505.331,188.794z"/>
	<path style="fill:#231F20;" d="M246.266,162.561l0.128-0.059l6.51,14.775c9.132-4.033,31.936-23.535,12.117-70.438
		c-10.012-23.694-0.09-28.48,19.677-38.017c19.244-9.283,45.599-21.998,38.506-62.152c-0.775-4.39-4.96-7.32-9.353-6.545
		c-4.391,0.775-7.323,4.964-6.546,9.353c4.968,28.116-10.297,35.48-29.621,44.803c-17.771,8.573-43.803,20.34-27.534,58.843
		C266.633,152.133,247.105,162.153,246.266,162.561z"/>
	<path style="fill:#231F20;" d="M307.357,195.285c-4.246,1.359-6.586,5.904-5.225,10.15c1.361,4.256,5.912,6.583,10.15,5.226
		c32.947-10.554,53.004-34.082,55.028-64.557c1.015-15.278,6.364-27.192,15.906-35.414c18.407-15.863,46.871-13.727,47.16-13.701
		c4.434,0.378,8.337-2.912,8.721-7.348c0.385-4.442-2.904-8.354-7.345-8.739c-1.435-0.125-35.344-2.803-58.977,17.472
		c-13.003,11.155-20.26,26.854-21.575,46.661C348.984,178.425,319.801,191.299,307.357,195.285z"/>
	<path style="fill:#231F20;" d="M221.263,97.682c0-20.206-24.59-30.649-39.059-16.18c-8.921,8.922-8.921,23.437,0,32.358
		C196.668,128.325,221.263,117.891,221.263,97.682z M198.382,90.945c3.723,0,6.736,3.013,6.736,6.737
		c0,6.021-7.292,8.968-11.498,4.761C189.391,98.216,192.403,90.945,198.382,90.945z"/>
	<path style="fill:#231F20;" d="M401.646,157.422c0,12.648,10.234,22.882,22.881,22.882c12.645,0,22.883-10.234,22.883-22.882
		c0-12.645-10.234-22.881-22.883-22.881C411.878,134.542,401.646,144.775,401.646,157.422z M429.287,162.185
		c-2.631,2.632-6.893,2.632-9.524,0c-2.631-2.63-2.634-6.892-0.001-9.525c2.633-2.633,6.893-2.633,9.526,0
		C431.922,155.292,431.923,159.553,429.287,162.185z"/>
	<circle style="fill:#231F20;" cx="316.797" cy="141.478" r="10.482"/>
	<circle style="fill:#231F20;" cx="264.553" cy="18.39" r="10.483"/>
	<path style="fill:#231F20;" d="M398.256,294.093l-16.083,0.506c-4.456,0.14-7.954,3.867-7.814,8.322
		c0.136,4.37,3.723,7.819,8.064,7.819c0.165,0,16.175-0.505,16.34-0.51c4.457-0.14,7.955-3.865,7.816-8.321
		C406.439,297.451,402.752,293.948,398.256,294.093z"/>
	<path style="fill:#231F20;" d="M228.882,69.925c4.34,0,7.927-3.45,8.064-7.819l0.505-16.081c0.141-4.456-3.358-8.183-7.814-8.323
		c-4.441-0.166-8.182,3.358-8.322,7.814l-0.506,16.082C220.666,66.141,224.305,69.925,228.882,69.925z"/>
	<path style="fill:#231F20;" d="M312.063,82.518c0.138,4.37,3.722,7.818,8.066,7.818c0.205,0,16.133-0.503,16.339-0.51
		c4.455-0.14,7.954-3.866,7.814-8.322c-0.14-4.455-3.841-7.966-8.322-7.814l-16.082,0.506
		C315.422,74.336,311.924,78.062,312.063,82.518z"/>
</g>
<g>
</g>
<g>
</g>
<g>
</g>
<g>
</g>
<g>
</g>
<g>
</g>
<g>
</g>
<g>
</g>
<g>
</g>
<g>
</g>
<g>
</g>
<g>
</g>
<g>
</g>
<g>
</g>
<g>
</g>
</svg>
