<svg height="480pt" viewBox="0 0 480.004 480" width="480pt" xmlns="http://www.w3.org/2000/svg"><path d="m282.585938 329.5625c.078124-.097656.160156-.199219.238281-.296875 4.226562-5.222656 7.929687-11.214844 11.019531-17.800781.167969-.359375.316406-.726563.476562-1.085938 1.296876-2.855468 2.464844-5.832031 3.523438-8.898437.183594-.542969.390625-1.078125.566406-1.628907 1.113282-3.402343 2.070313-6.90625 2.863282-10.511718.113281-.515625.183593-1.042969.289062-1.554688.625-3.070312 1.121094-6.214844 1.503906-9.40625.121094-.976562.230469-1.953125.328125-2.945312.359375-3.75.609375-7.550782.609375-11.429688 0-2.824218-.121094-5.617187-.304687-8.378906-.136719-1.871094-.351563-3.710938-.570313-5.550781-.085937-.769531-.152344-1.542969-.253906-2.296875-.328125-2.375-.738281-4.726563-1.199219-7.03125-.027343-.136719-.050781-.273438-.082031-.40625-.503906-2.464844-1.085938-4.890625-1.734375-7.273438-9.121094-33.320312-32.441406-57.0625-59.855469-57.0625-27.417968 0-50.738281 23.742188-59.859375 57.054688-.648437 2.375-1.230469 4.800781-1.734375 7.269531-.023437.136719-.046875.273437-.082031.410156-.460937 2.3125-.871094 4.65625-1.199219 7.03125-.101562.761719-.167968 1.535157-.253906 2.296875-.21875 1.839844-.441406 3.679688-.570312 5.550782-.183594 2.769531-.300782 5.5625-.300782 8.386718 0 3.878906.246094 7.679688.597656 11.421875.097657.992188.207032 1.96875.328126 2.945313.382812 3.199218.871093 6.34375 1.503906 9.40625.105468.511718.175781 1.039062.289062 1.550781.792969 3.609375 1.757813 7.121094 2.863282 10.515625.175781.550781.382812 1.085938.566406 1.628906 1.058594 3.066406 2.226562 6.042969 3.523437 8.898438.160157.359375.308594.734375.476563 1.085937 3.089844 6.585938 6.792968 12.578125 11.019531 17.800781.078125.097657.15625.199219.238281.296876 4.328125 5.304687 9.175782 9.824218 14.441406 13.382812 8.503907 5.753906 18.039063 9.066406 28.152344 9.066406 10.109375 0 19.644532-3.3125 28.140625-9.058594 5.265625-3.558593 10.113281-8.078124 14.441407-13.382812zm0 0" fill="#d85b55"/><path d="m299.859375 233.058594c.648437 2.375 1.230469 4.800781 1.734375 7.269531.023438.136719.046875.273437.082031.410156.460938 2.3125.878907 4.648438 1.199219 7.03125.101562.761719.167969 1.535157.253906 2.296875.21875 1.839844.441406 3.671875.570313 5.550782.191406 2.769531.304687 5.554687.304687 8.386718 0 3.878906-.25 7.679688-.601562 11.421875-.097656.992188-.207032 1.960938-.328125 2.945313-.382813 3.199218-.878907 6.335937-1.503907 9.40625-.105468.511718-.175781 1.039062-.289062 1.550781-.792969 3.617187-1.757812 7.113281-2.863281 10.515625-.183594.550781-.382813 1.085938-.566407 1.628906-1.058593 3.066406-2.226562 6.035156-3.523437 8.898438-.167969.359375-.308594.734375-.476563 1.085937-3.089843 6.601563-6.800781 12.570313-11.015624 17.800781-.082032.097657-.160157.199219-.242188.296876-4.328125 5.320312-9.175781 9.824218-14.441406 13.382812 9.113281 33.320312 32.433594 57.066406 59.851562 57.066406 35.34375 0 64-39.402344 64-88 0-48.601562-28.65625-88-64-88-10.113281 0-19.640625 3.308594-28.144531 9.054688zm0 0" fill="#7cd5ed"/><path d="m197.417969 329.5625c-.078125-.097656-.160157-.199219-.238281-.296875-4.21875-5.230469-7.929688-11.199219-11.019532-17.800781-.167968-.359375-.316406-.726563-.476562-1.085938-1.296875-2.863281-2.464844-5.824218-3.523438-8.898437-.191406-.542969-.390625-1.078125-.566406-1.628907-1.105469-3.402343-2.078125-6.90625-2.863281-10.511718-.113281-.515625-.183594-1.042969-.289063-1.554688-.625-3.070312-1.121094-6.214844-1.503906-9.40625-.121094-.976562-.230469-1.953125-.328125-2.945312-.359375-3.75-.605469-7.550782-.605469-11.429688 0-2.832031.109375-5.617187.300782-8.378906.128906-1.878906.359374-3.710938.570312-5.550781.085938-.761719.152344-1.542969.253906-2.296875.320313-2.382813.746094-4.71875 1.199219-7.03125.027344-.136719.050781-.273438.082031-.40625.503906-2.472656 1.085938-4.890625 1.734375-7.273438-8.503906-5.753906-18.03125-9.0625-28.140625-9.0625-35.347656 0-64 39.398438-64 88 0 48.597656 28.652344 88 64 88 27.414063 0 50.734375-23.746094 59.855469-57.058594-5.273437-3.558593-10.113281-8.0625-14.441406-13.382812zm0 0" fill="#7ac174"/><path d="m64.003906 104.003906 48-96h-104zm0 0" fill="#7cd5ed"/><path d="m184.003906 104.003906 48-96h-104zm0 0" fill="#fcb138"/><path d="m304.003906 104.003906 48-96h-104zm0 0" fill="#7cd5ed"/><path d="m424.003906 104.003906 48-96h-104zm0 0" fill="#fcb138"/><path d="m466.347656 469.65625-24-24c-3.128906-3.125-3.128906-8.183594 0-11.308594l18.34375-18.34375-18.34375-18.347656c-3.128906-3.125-3.128906-8.183594 0-11.308594l18.34375-18.34375-18.34375-18.347656 11.308594-11.308594 24 24c3.128906 3.125 3.128906 8.183594 0 11.308594l-18.34375 18.347656 18.34375 18.34375c3.128906 3.125 3.128906 8.183594 0 11.308594l-18.34375 18.347656 18.34375 18.34375zm0 0" fill="#7ac174"/><path d="m26.347656 333.65625-24-24c-3.128906-3.125-3.128906-8.183594 0-11.308594l18.34375-18.34375-18.34375-18.347656c-3.128906-3.125-3.128906-8.183594 0-11.308594l18.34375-18.34375-18.34375-18.347656 11.308594-11.308594 24 24c3.128906 3.125 3.128906 8.183594 0 11.308594l-18.34375 18.347656 18.34375 18.34375c3.128906 3.125 3.128906 8.183594 0 11.308594l-18.34375 18.347656 18.34375 18.34375zm0 0" fill="#7cd5ed"/><path d="m378.347656 213.65625-24-24c-3.128906-3.125-3.128906-8.183594 0-11.308594l18.34375-18.34375-18.34375-18.347656c-3.128906-3.125-3.128906-8.183594 0-11.308594l18.34375-18.34375-18.34375-18.347656 11.308594-11.308594 24 24c3.128906 3.125 3.128906 8.183594 0 11.308594l-18.34375 18.347656 18.34375 18.34375c3.128906 3.125 3.128906 8.183594 0 11.308594l-18.34375 18.347656 18.34375 18.34375zm0 0" fill="#fcb138"/><g fill="#131239"><path d="m.00390625 8.035156v7.96875h3.39843775l53.6875 92.03125c1.433594 2.460938 4.082031 3.96875 6.914062 3.96875h.253906c2.9375-.097656 5.585938-1.792968 6.894532-4.417968l45.792968-91.582032h6.457032l53.6875 92.03125c1.433594 2.460938 4.082031 3.96875 6.914062 3.96875h.253906c2.9375-.097656 5.585938-1.792968 6.894532-4.417968l45.792968-91.582032h6.457032l53.6875 92.03125c1.433594 2.460938 4.082031 3.96875 6.914062 3.96875h.253906c2.9375-.097656 5.585938-1.792968 6.894532-4.417968l45.792968-91.582032h6.457032l53.6875 92.03125c1.441406 2.460938 4.082031 3.96875 6.914062 3.96875h.253906c2.9375-.097656 5.585938-1.792968 6.894532-4.417968l45.792968-91.582032h3.058594v-15.99999975h-479.99999975v8.01562475zm459.05468775 7.96875-35.59375 71.191406-41.535156-71.191406zm-120 0-35.59375 71.191406-41.535156-71.191406zm-120 0-35.59375 71.191406-41.535156-71.191406zm-120 0-35.59375 71.191406-41.535156-71.191406zm0 0"/><path d="m336.003906 480.003906v-72.632812c35.941406-5.328125 64-46.050782 64-95.367188 0-52.9375-32.296875-96-72-96-8.121094 0-16.011718 1.863282-23.578125 5.382813-11.808593-31.585938-36.207031-53.382813-64.421875-53.382813-28.21875 0-52.617187 21.796875-64.425781 53.382813-7.566406-3.519531-15.457031-5.382813-23.574219-5.382813-39.707031 0-72 43.0625-72 96 0 49.324219 28.054688 90.039063 64 95.367188v72.632812h16v-72.675781c24.246094-3.644531 45.621094-23.597656 56.4375-52.710937 4.96875 2.304687 10.160156 3.960937 15.5625 4.753906v120.632812h16v-120.632812c5.390625-.800782 10.589844-2.449219 15.558594-4.753906 10.816406 29.113281 32.191406 49.074218 56.441406 52.710937v72.675781zm-96-296c23.671875 0 43.917969 21.132813 52.09375 50.863282.023438.101562.007813.207031.03125.304687 1.28125 4.644531 2.242188 9.382813 2.882813 14.167969.039062.285156.054687.582031.09375.871094.265625 2.0625.480469 4.136718.625 6.222656.167969 2.496094.273437 5.015625.273437 7.570312 0 3.535156-.210937 7.039063-.539062 10.492188-.054688.632812-.136719 1.257812-.199219 1.882812-2.894531 25.726563-14.625 48.480469-31.582031 59.933594-.136719.089844-.21875.226562-.34375.320312-7.121094 4.679688-15.011719 7.371094-23.335938 7.371094-8.328125 0-16.21875-2.683594-23.328125-7.371094-.128906-.09375-.210937-.230468-.347656-.320312-16.957031-11.453125-28.6875-34.199219-31.582031-59.925781-.070313-.632813-.144532-1.257813-.199219-1.890625-.335937-3.460938-.542969-6.957032-.542969-10.492188 0-2.554687.101563-5.074218.269532-7.5625.144531-2.0625.359374-4.121094.617187-6.167968.039063-.304688.0625-.625.09375-.925782.648437-4.785156 1.609375-9.523437 2.882813-14.167968.023437-.105469.007812-.210938.03125-.3125 8.183593-29.730469 28.429687-50.863282 52.105468-50.863282zm-37.441406 162.015625c-9.214844 27.71875-29.066406 45.984375-50.558594 45.984375-30.875 0-56-35.890625-56-80 0-44.113281 25.125-80 56-80 6.476563 0 12.832032 1.628906 18.964844 4.863282-.015625.078124-.023438.167968-.039062.246093-.839844 3.839844-1.472657 7.800781-1.953126 11.824219-.101562.855469-.207031 1.710938-.292968 2.570312-.402344 4.09375-.679688 8.246094-.679688 12.496094 0 3.832032.214844 7.589844.542969 11.300782.109375 1.296874.289063 2.570312.4375 3.855468.28125 2.371094.617187 4.707032 1.027344 7.011719.269531 1.550781.558593 3.085937.894531 4.613281.414062 1.890625.894531 3.738282 1.390625 5.578125 1.855469 6.949219 4.304687 13.527344 7.289063 19.6875.375.765625.726562 1.535157 1.121093 2.289063 1.054688 2.046875 2.175781 4.039062 3.351563 5.972656.40625.671875.839844 1.320312 1.261718 1.984375 3.5625 5.546875 7.601563 10.5625 12.097657 14.945313 1.214843 1.191406 2.441406 2.351562 3.703125 3.441406.503906.421875.9375.925781 1.441406 1.335937zm74.878906 0c.503906-.410156.945313-.914062 1.433594-1.335937 1.269531-1.089844 2.496094-2.25 3.703125-3.441406 4.503906-4.390626 8.535156-9.40625 12.105469-14.953126.421875-.65625.847656-1.304687 1.261718-1.976562 1.175782-1.933594 2.296876-3.925781 3.351563-5.972656.386719-.753906.746094-1.53125 1.121094-2.289063 2.984375-6.160156 5.433593-12.738281 7.289062-19.6875.496094-1.839843.976563-3.679687 1.390625-5.578125.328125-1.535156.625-3.070312.894532-4.632812.410156-2.300782.746093-4.628906 1.027343-6.992188.152344-1.285156.328125-2.550781.4375-3.855468.328125-3.710938.546875-7.46875.546875-11.300782 0-4.25-.28125-8.402344-.683594-12.496094-.085937-.859374-.191406-1.714843-.292968-2.570312-.480469-4.023438-1.105469-7.976562-1.953125-11.824219-.015625-.078125-.023438-.167969-.039063-.246093 6.136719-3.234376 12.488282-4.863282 18.96875-4.863282 30.871094 0 56 35.886719 56 80 0 44.109375-25.128906 80-56 80-21.496094 0-41.347656-18.265625-50.5625-45.984375zm0 0"/></g></svg>