<?xml version="1.0" encoding="UTF-8"?>
<svg width="2000px" height="500px" viewBox="0 0 2000 500" version="1.1" xmlns="http://www.w3.org/2000/svg" xmlns:xlink="http://www.w3.org/1999/xlink" style="background: #FFFFFF;">
    <!-- Generator: Sketch 49.3 (51167) - http://www.bohemiancoding.com/sketch -->
    <title>Gift divider</title>
    <desc>Created with Sketch.</desc>
    <defs>
        <linearGradient x1="100%" y1="50%" x2="2.06376445%" y2="50%" id="linearGradient-1">
            <stop stop-color="#FFFFFF" stop-opacity="0" offset="0%"></stop>
            <stop stop-color="#FFFFFF" offset="100%"></stop>
        </linearGradient>
        <linearGradient x1="2.06376445%" y1="50%" x2="100%" y2="50%" id="linearGradient-2">
            <stop stop-color="#FFFFFF" stop-opacity="0" offset="0%"></stop>
            <stop stop-color="#FFFFFF" offset="100%"></stop>
        </linearGradient>
        <linearGradient x1="-85.65%" y1="50%" x2="655.625%" y2="50%" id="linearGradient-3">
            <stop stop-color="#BC4E9C" offset="0%"></stop>
            <stop stop-color="#F80759" offset="100%"></stop>
        </linearGradient>
        <linearGradient x1="-248.15%" y1="50%" x2="493.125%" y2="50%" id="linearGradient-4">
            <stop stop-color="#BC4E9C" offset="0%"></stop>
            <stop stop-color="#F80759" offset="100%"></stop>
        </linearGradient>
        <linearGradient x1="-410.65%" y1="50%" x2="330.625%" y2="50%" id="linearGradient-5">
            <stop stop-color="#BC4E9C" offset="0%"></stop>
            <stop stop-color="#F80759" offset="100%"></stop>
        </linearGradient>
        <linearGradient x1="-573.15%" y1="50%" x2="168.125%" y2="50%" id="linearGradient-6">
            <stop stop-color="#BC4E9C" offset="0%"></stop>
            <stop stop-color="#F80759" offset="100%"></stop>
        </linearGradient>
        <linearGradient x1="-120.372601%" y1="49.9994515%" x2="303.212126%" y2="49.9994515%" id="linearGradient-7">
            <stop stop-color="#BC4E9C" offset="0%"></stop>
            <stop stop-color="#F80759" offset="100%"></stop>
        </linearGradient>
        <linearGradient x1="0.246666667%" y1="50%" x2="99.0833333%" y2="50%" id="linearGradient-8">
            <stop stop-color="#BC4E9C" offset="0%"></stop>
            <stop stop-color="#F80759" offset="100%"></stop>
        </linearGradient>
    </defs>
    <g id="Gift-divider" stroke="none" stroke-width="1" fill="none" fill-rule="evenodd">
        <path d="M0,250.25 L800,250.25" id="Line" stroke="#F48D90" stroke-width="5" stroke-linecap="square"></path>
        <path d="M1200,250.25 L2000,250.25" id="Line" stroke="#F48D90" stroke-width="5" stroke-linecap="square"></path>
        <rect id="Rectangle" fill="url(#linearGradient-1)" x="0" y="212" width="800" height="74"></rect>
        <rect id="Rectangle" fill="url(#linearGradient-2)" x="1200" y="213" width="800" height="74"></rect>
        <g id="wedding-day" transform="translate(872.000000, 122.000000)" fill-rule="nonzero">
            <g id="Group" transform="translate(29.866667, 93.866667)">
                <path d="M4.26666667,34.1333333 L29.8666667,34.1333333 C32.2229333,34.1333333 34.1333333,32.2229333 34.1333333,29.8666667 L34.1333333,4.26666667 C34.1333333,1.9104 32.2229333,0 29.8666667,0 L4.26666667,0 C1.9104,0 0,1.9104 0,4.26666667 L0,29.8666667 C0,32.2229333 1.9104,34.1333333 4.26666667,34.1333333 Z M8.53333333,8.53333333 L25.6,8.53333333 L25.6,25.6 L8.53333333,25.6 L8.53333333,8.53333333 Z" id="Shape" fill="url(#linearGradient-3)"></path>
                <path d="M59.7333333,34.1333333 L85.3333333,34.1333333 C87.6896,34.1333333 89.6,32.2229333 89.6,29.8666667 L89.6,4.26666667 C89.6,1.9104 87.6896,0 85.3333333,0 L59.7333333,0 C57.3770667,0 55.4666667,1.9104 55.4666667,4.26666667 L55.4666667,29.8666667 C55.4666667,32.2229333 57.3770667,34.1333333 59.7333333,34.1333333 Z M64,8.53333333 L81.0666667,8.53333333 L81.0666667,25.6 L64,25.6 L64,8.53333333 Z" id="Shape" fill="url(#linearGradient-4)"></path>
                <path d="M115.2,34.1333333 L140.8,34.1333333 C143.156267,34.1333333 145.066667,32.2229333 145.066667,29.8666667 L145.066667,4.26666667 C145.066667,1.9104 143.156267,0 140.8,0 L115.2,0 C112.843733,0 110.933333,1.9104 110.933333,4.26666667 L110.933333,29.8666667 C110.933333,32.2229333 112.843733,34.1333333 115.2,34.1333333 Z M119.466667,8.53333333 L136.533333,8.53333333 L136.533333,25.6 L119.466667,25.6 L119.466667,8.53333333 Z" id="Shape" fill="url(#linearGradient-5)"></path>
                <path d="M170.666667,34.1333333 L196.266667,34.1333333 C198.622933,34.1333333 200.533333,32.2229333 200.533333,29.8666667 L200.533333,4.26666667 C200.533333,1.9104 198.622933,0 196.266667,0 L170.666667,0 C168.3104,0 166.4,1.9104 166.4,4.26666667 L166.4,29.8666667 C166.4,32.2229333 168.3104,34.1333333 170.666667,34.1333333 Z M174.933333,8.53333333 L192,8.53333333 L192,25.6 L174.933333,25.6 L174.933333,8.53333333 Z" id="Shape" fill="url(#linearGradient-6)"></path>
            </g>
            <g id="Group">
                <path d="M34.1333333,179.2 L59.7333333,179.2 C62.0896,179.2 64,177.2896 64,174.933333 L64,149.333333 C64,146.977067 62.0896,145.066667 59.7333333,145.066667 L34.1333333,145.066667 C31.7770667,145.066667 29.8666667,146.977067 29.8666667,149.333333 L29.8666667,174.933333 C29.8666667,177.2896 31.7770667,179.2 34.1333333,179.2 Z M38.4,153.6 L55.4666667,153.6 L55.4666667,170.666667 L38.4,170.666667 L38.4,153.6 Z" id="Shape" fill="url(#linearGradient-3)"></path>
                <path d="M145.066667,179.2 L170.666667,179.2 C173.022933,179.2 174.933333,177.2896 174.933333,174.933333 L174.933333,149.333333 C174.933333,146.977067 173.022933,145.066667 170.666667,145.066667 L145.066667,145.066667 C142.7104,145.066667 140.8,146.977067 140.8,149.333333 L140.8,174.933333 C140.8,177.2896 142.7104,179.2 145.066667,179.2 Z M149.333333,153.6 L166.4,153.6 L166.4,170.666667 L149.333333,170.666667 L149.333333,153.6 Z" id="Shape" fill="url(#linearGradient-5)"></path>
                <path d="M200.533333,179.2 L226.133333,179.2 C228.4896,179.2 230.4,177.2896 230.4,174.933333 L230.4,149.333333 C230.4,146.977067 228.4896,145.066667 226.133333,145.066667 L200.533333,145.066667 C198.177067,145.066667 196.266667,146.977067 196.266667,149.333333 L196.266667,174.933333 C196.266667,177.2896 198.177067,179.2 200.533333,179.2 Z M204.8,153.6 L221.866667,153.6 L221.866667,170.666667 L204.8,170.666667 L204.8,153.6 Z" id="Shape" fill="url(#linearGradient-6)"></path>
                <path d="M34.1333333,230.4 L59.7333333,230.4 C62.0896,230.4 64,228.4896 64,226.133333 L64,200.533333 C64,198.177067 62.0896,196.266667 59.7333333,196.266667 L34.1333333,196.266667 C31.7770667,196.266667 29.8666667,198.177067 29.8666667,200.533333 L29.8666667,226.133333 C29.8666667,228.4896 31.7770667,230.4 34.1333333,230.4 Z M38.4,204.8 L55.4666667,204.8 L55.4666667,221.866667 L38.4,221.866667 L38.4,204.8 Z" id="Shape" fill="url(#linearGradient-3)"></path>
                <path d="M115.2,196.266667 L89.6,196.266667 C87.2437333,196.266667 85.3333333,198.177067 85.3333333,200.533333 L85.3333333,226.133333 C85.3333333,228.4896 87.2437333,230.4 89.6,230.4 L115.2,230.4 C117.556267,230.4 119.466667,228.4896 119.466667,226.133333 L119.466667,200.533333 C119.466667,198.177067 117.556267,196.266667 115.2,196.266667 Z M110.933333,221.866667 L93.8666667,221.866667 L93.8666667,204.8 L110.933333,204.8 L110.933333,221.866667 Z" id="Shape" fill="url(#linearGradient-4)"></path>
                <path d="M145.066667,230.4 L170.666667,230.4 C173.022933,230.4 174.933333,228.4896 174.933333,226.133333 L174.933333,200.533333 C174.933333,198.177067 173.022933,196.266667 170.666667,196.266667 L145.066667,196.266667 C142.7104,196.266667 140.8,198.177067 140.8,200.533333 L140.8,226.133333 C140.8,228.4896 142.7104,230.4 145.066667,230.4 Z M149.333333,204.8 L166.4,204.8 L166.4,221.866667 L149.333333,221.866667 L149.333333,204.8 Z" id="Shape" fill="url(#linearGradient-5)"></path>
                <path d="M200.533333,230.4 L226.133333,230.4 C228.4896,230.4 230.4,228.4896 230.4,226.133333 L230.4,200.533333 C230.4,198.177067 228.4896,196.266667 226.133333,196.266667 L200.533333,196.266667 C198.177067,196.266667 196.266667,198.177067 196.266667,200.533333 L196.266667,226.133333 C196.266667,228.4896 198.177067,230.4 200.533333,230.4 Z M204.8,204.8 L221.866667,204.8 L221.866667,221.866667 L204.8,221.866667 L204.8,204.8 Z" id="Shape" fill="url(#linearGradient-6)"></path>
                <path d="M99.5242667,186.619733 C101.1536,188.106133 103.6464,188.106133 105.275733,186.619733 L126.485333,167.287467 C133.563733,161.038933 134.2368,150.234667 127.988267,143.156267 C127.518933,142.624533 127.017067,142.122667 126.485333,141.653333 C119.781333,135.7712 110.0432,134.898667 102.4,139.4944 C94.7621333,134.891733 85.0245333,135.754133 78.3146667,141.627733 C71.2346667,147.882133 70.5658667,158.691733 76.8202667,165.771733 C77.2869333,166.300267 77.7861333,166.799467 78.3146667,167.266133 L99.5242667,186.619733 Z M84.0533333,147.9552 C88.4736,144.069867 95.0912,144.069867 99.5114667,147.9552 C101.1408,149.4416 103.6336,149.4416 105.262933,147.9552 C109.6832,144.069867 116.3008,144.069867 120.721067,147.9552 C124.3168,151.0304 124.738667,156.438933 121.663467,160.034667 C121.3744,160.3728 121.0592,160.688 120.721067,160.977067 L102.4,177.693867 L84.0533333,160.981333 C80.456,157.903467 80.0352,152.4928 83.1130667,148.895467 C83.4016,148.5584 83.7157333,148.243733 84.0533333,147.9552 Z" id="Shape" fill="url(#linearGradient-7)"></path>
                <path d="M251.733333,21.3333333 L209.066667,21.3333333 L209.066667,4.26666667 C209.066667,1.9104 207.156267,0 204.8,0 L187.733333,0 C185.377067,0 183.466667,1.9104 183.466667,4.26666667 L183.466667,21.3333333 L140.8,21.3333333 L140.8,4.26666667 C140.8,1.9104 138.8896,0 136.533333,0 L119.466667,0 C117.1104,0 115.2,1.9104 115.2,4.26666667 L115.2,21.3333333 L72.5333333,21.3333333 L72.5333333,4.26666667 C72.5333333,1.9104 70.6229333,0 68.2666667,0 L51.2,0 C48.8437333,0 46.9333333,1.9104 46.9333333,4.26666667 L46.9333333,21.3333333 L4.26666667,21.3333333 C1.9104,21.3333333 0,23.2437333 0,25.6 L0,251.733333 C0,254.0896 1.9104,256 4.26666667,256 L251.733333,256 C254.0896,256 256,254.0896 256,251.733333 L256,25.6 C256,23.2437333 254.0896,21.3333333 251.733333,21.3333333 Z M192,8.53333333 L200.533333,8.53333333 L200.533333,38.4 L192,38.4 L192,8.53333333 Z M123.733333,8.53333333 L132.266667,8.53333333 L132.266667,38.4 L123.733333,38.4 L123.733333,8.53333333 Z M55.4666667,8.53333333 L64,8.53333333 L64,38.4 L55.4666667,38.4 L55.4666667,8.53333333 Z M8.53333333,29.8666667 L46.9333333,29.8666667 L46.9333333,42.6666667 C46.9333333,45.0229333 48.8437333,46.9333333 51.2,46.9333333 L68.2666667,46.9333333 C70.6229333,46.9333333 72.5333333,45.0229333 72.5333333,42.6666667 L72.5333333,29.8666667 L115.2,29.8666667 L115.2,42.6666667 C115.2,45.0229333 117.1104,46.9333333 119.466667,46.9333333 L136.533333,46.9333333 C138.8896,46.9333333 140.8,45.0229333 140.8,42.6666667 L140.8,29.8666667 L183.466667,29.8666667 L183.466667,42.6666667 C183.466667,45.0229333 185.377067,46.9333333 187.733333,46.9333333 L204.8,46.9333333 C207.156267,46.9333333 209.066667,45.0229333 209.066667,42.6666667 L209.066667,29.8666667 L247.466667,29.8666667 L247.466667,59.7333333 L8.53333333,59.7333333 L8.53333333,29.8666667 Z M247.466667,247.466667 L8.53333333,247.466667 L8.53333333,68.2666667 L247.466667,68.2666667 L247.466667,247.466667 Z" id="Shape" fill="url(#linearGradient-8)"></path>
            </g>
        </g>
    </g>
</svg>