<svg height="512pt" viewBox="0 -27 512.00031 512" width="512pt" xmlns="http://www.w3.org/2000/svg"><path d="m378.667969 202.019531h-101.667969c-22.089844 0-40 17.910157-40 40v120.628907h181.667969v-120.628907c0-22.089843-17.910157-40-40-40zm0 0" fill="#ff5d5d"/><path d="m51.25 332.957031h-41.25v115.0625h41.25c7.042969 0 12.75-5.707031 12.75-12.75v-89.5625c0-7.039062-5.707031-12.75-12.75-12.75zm0 0" fill="#ffb954"/><path d="m354.652344 49.171875c1.671875-1.882813 1.875-4.652344.5-6.757813l-19.515625-29.882812c-1-1.527344-2.679688-2.457031-4.492188-2.519531l-42.253906.011719c-1.878906 0-3.636719.949218-4.667969 2.523437l-19.582031 29.863281c-1.382813 2.109375-1.183594 4.882813.492187 6.769532l44.757813 50.476562zm0 0" fill="#72d8ff"/><path d="m355.152344 42.414062-19.515625-29.882812c-1-1.527344-2.679688-2.457031-4.492188-2.519531l-42.253906.011719c-1.878906 0-3.636719.949218-4.667969 2.523437l-19.582031 29.863281c-.867187 1.320313-1.109375 2.898438-.761719 4.359375h92.027344c.347656-1.457031.105469-3.035156-.753906-4.355469zm0 0" fill="#ade5ff"/><path d="m489.574219 269.730469c-10-5.945313-22.761719-4.347657-30.984375 3.882812l-74.132813 74.210938c-9.082031 9.089843-21.398437 14.195312-34.246093 14.195312h-35.117188l-6.683594-1.816406-.070312-.265625c3.96875-8.511719 2.5-19.503906-6.65625-26.195312l-75.773438-55.378907c-23.4375-17.125-53.777344-21.6875-81.210937-12.207031l-80.699219 27.742188v134.058593h248.113281c60.222657 0 97.910157-17.566406 123.453125-47.992187l60.480469-72.039063c10.078125-12.003906 6.996094-30.179687-6.472656-38.195312zm0 0" fill="#fff"/><path d="m435.566406 379.964844 55.867188-66.542969c-.601563-.429687-1.214844-.84375-1.859375-1.226563-10-5.949218-22.761719-4.347656-30.980469 3.882813l-74.136719 74.210937c-9.078125 9.085938-21.398437 14.195313-34.246093 14.195313h-35.117188l-6.683594-1.816406-.066406-.269531c3.964844-8.507813 2.496094-19.503907-6.660156-26.195313l-75.773438-55.375c-23.4375-17.128906-53.777344-21.6875-81.210937-12.207031l-80.699219 27.738281v91.597656h248.113281c60.222657 0 97.910157-17.566406 123.453125-47.992187zm0 0" fill="#feda9b"/><path d="m104.410156 417.960938c-2.628906 0-5.210937 1.058593-7.070312 2.917968-1.859375 1.871094-2.929688 4.441406-2.929688 7.082032 0 2.628906 1.070313 5.210937 2.929688 7.070312 1.863281 1.859375 4.429687 2.929688 7.070312 2.929688 2.628906 0 5.210938-1.070313 7.070313-2.929688s2.929687-4.441406 2.929687-7.070312c0-2.632813-1.070312-5.210938-2.929687-7.082032-1.859375-1.859375-4.441407-2.917968-7.070313-2.917968zm0 0"/><path d="m511.5 285.660156c-1.738281-10.261718-7.867188-19.203125-16.816406-24.523437-13.949219-8.296875-31.699219-6.070313-43.167969 5.410156l-22.847656 22.871094v-47.398438c0-27.570312-22.429688-50-50-50h-.664063c-3.703125-37.949219-30.6875-69.175781-66.445312-79.171875l50.574218-57.039062c4.648438-5.238282 5.222657-12.996094 1.390626-18.863282l-19.515626-29.882812c-2.890624-4.421875-7.769531-7.0625-13.050781-7.0625h-.003906l-87.816406.0234375c-5.269531 0-10.136719 2.6328125-13.027344 7.0390625l-19.582031 29.863281c-3.847656 5.871094-3.285156 13.636719 1.371094 18.886719l50.546874 57.003906c-35.816406 9.964844-62.855468 41.214844-66.5625 79.203125h-12.214843c-27.570313 0-50 22.429688-50 50v17.351563l-59.667969 20.511718v-9.113281c0-12.542969-10.207031-22.75-22.75-22.75h-41.25c-5.523438 0-10 4.476563-10 10v190c0 5.523438 4.476562 10 10 10h41.25c12.542969 0 22.75-10.207031 22.75-22.75v-134.316406c.378906-.082031.761719-.179687 1.136719-.308594l72.828125-25.039062c24.328125-8.40625 51.261718-4.355469 72.042968 10.832031l75.777344 55.378906c6.097656 4.457032 4.636719 10.726563 4.046875 12.539063-.59375 1.816406-3.117187 7.742187-10.671875 7.742187-1.726562 0-3.457031-.40625-5.003906-1.179687l-69.273438-34.503907c-3.96875-1.976562-8.40625-3.019531-12.835937-3.019531h-18.441406c-5.519531 0-10 4.476563-10 10 0 5.519531 4.480469 10 10 10h18.441406c1.351563 0 2.707031.316407 3.917969.921875l69.277344 34.503906c4.300781 2.144532 9.113281 3.277344 13.917968 3.277344 9.304688 0 17.632813-3.875 23.378906-10.417968.816407.214843 1.667969.339843 2.554688.339843h35.117188c15.613281 0 30.285156-6.082031 41.320312-17.128906l34.207031-34.242187 39.925781-39.96875c4.996094-5 12.722657-5.96875 18.796876-2.355469 3.894531 2.316406 6.5625 6.207031 7.320312 10.675781s-.480469 9.023438-3.394531 12.496094l-60.480469 72.039062c-23.699219 28.230469-58.433594 44.421875-95.292969 44.421875h-192.203125c-5.523437 0-10 4.476563-10 10 0 5.523438 4.476563 10 10 10h192.203125c42.785157 0 83.101563-18.792969 110.613281-51.5625l60.476563-72.039062c6.695313-7.972657 9.535156-18.433594 7.796875-28.695313zm-457.5 149.609375c0 1.519531-1.234375 2.75-2.75 2.75h-31.25v-170h31.25c1.515625 0 2.75 1.234375 2.75 2.75zm233.015625-325.789062c-.363281-.003907-.890625-.105469-1.328125-.597657l-46.210938-52.113281h95.074219l-46.207031 52.113281c-.4375.492188-.964844.597657-1.328125.597657zm-41.488281-89.460938 83.042968-.019531 10.953126 16.769531h-104.976563zm41.417968 109.460938c36.386719 0 66.492188 27.332031 70.917969 62.539062h-141.839843c4.425781-35.207031 34.53125-62.539062 70.921874-62.539062zm90.433594 211.277343c-7.253906 7.261719-16.902344 11.261719-27.167968 11.261719h-29.820313c.464844-10.21875-4.109375-19.996093-12.804687-26.351562l-75.777344-55.378907c-22.632813-16.539062-51.074219-22.542968-78.140625-16.945312v-11.324219c0-16.539062 13.457031-30 30-30h195c15.855469 0 28.871093 12.367188 29.921875 27.960938h-87.679688c-5.523437 0-10 4.476562-10 10 0 5.523437 4.476563 10 10 10h87.757813v49.457031zm0 0"/><path d="m279.75 239.980469c-2.640625 0-5.21875 1.070312-7.070312 2.929687-1.871094 1.859375-2.9375 4.441406-2.9375 7.070313 0 2.628906 1.066406 5.210937 2.9375 7.070312 1.859374 1.859375 4.433593 2.929688 7.070312 2.929688 2.621094 0 5.199219-1.070313 7.070312-2.929688 1.859376-1.859375 2.921876-4.441406 2.921876-7.070312 0-2.628907-1.0625-5.210938-2.921876-7.070313-1.871093-1.859375-4.441406-2.929687-7.070312-2.929687zm0 0"/></svg>